<svg xmlns="http://www.w3.org/2000/svg" xmlns:xlink="http://www.w3.org/1999/xlink" width="52.138"
    height="56.544" viewBox="0 0 52.138 56.544">
    <defs>
        <linearGradient id="linear-gradient" x1="0.012" x2="0.988" y2="1"
            gradientUnits="objectBoundingBox">
            <stop offset="0" stop-color="#f6f9fc" />
            <stop offset="1" stop-color="#797979" />
        </linearGradient>
    </defs>
    <g id="Group_458" data-name="Group 458" transform="translate(-571.064 -1083.694)">
        <path id="Layer"
            d="M-13.3,867.086l-14.538,8.24A13.172,13.172,0,0,0-34.1,886.021l-.135,16.974a10.753,10.753,0,0,0,5.138,8.913l15.859,9.325a10.654,10.654,0,0,0,10.182-.193l16.723-9.479a8.73,8.73,0,0,0,4.079-7.41l.156-19.67a9.6,9.6,0,0,0-4.671-8l-15.1-8.878C-5.375,865.546-10.153,865.3-13.3,867.086Z"
            transform="translate(605.301 217.804)" fill="url(#linear-gradient)" />
        <g id="Group_457" data-name="Group 457" transform="translate(584.223 1100.206)">
            <path id="Path_671" data-name="Path 671"
                d="M63.66,98.192S46.814,95.174,79.032,75.45c0,0-18.671,5.756-22.882,16.775C56.149,92.225,53.833,98.333,63.66,98.192Z"
                transform="translate(-55.912 -74.674)" fill="#fff" />
            <path id="Path_672" data-name="Path 672"
                d="M148.761,90.482l3.4-2.352s8.037,4.843,2.352,12.986a20.816,20.816,0,0,1-13.417,7.616S161.219,101.151,148.761,90.482Z"
                transform="translate(-130.729 -85.81)" fill="#fff" />
            <path id="Path_673" data-name="Path 673"
                d="M89.318,70.447l-4.352,1.9S80.3,70.061,71.7,70.447A28.885,28.885,0,0,1,89.318,70.447Z"
                transform="translate(-69.778 -69.074)" fill="#fff" />
            <path id="Path_674" data-name="Path 674"
                d="M71.7,84.04s4.106-.386,8.809,4.106l-2.071,1.4A15.179,15.179,0,0,0,71.7,84.04Z"
                transform="translate(-69.778 -82.211)" fill="#fff" />
            <path id="Path_675" data-name="Path 675"
                d="M141.1,140.134s4.412,6.563,0,12.494a11.087,11.087,0,0,0,1.961-14.037Z"
                transform="translate(-130.729 -130.127)" fill="#fff" />
        </g>
    </g>
</svg>
  