<svg xmlns="http://www.w3.org/2000/svg" xmlns:xlink="http://www.w3.org/1999/xlink" width="52.138" height="56.544" viewBox="0 0 52.138 56.544">
  <defs>
    <linearGradient id="linear-gradient" x1="0.012" x2="0.988" y2="1" gradientUnits="objectBoundingBox">
      <stop offset="0" stop-color="#24ceee"/>
      <stop offset="1" stop-color="#22eab9"/>
    </linearGradient>
  </defs>
  <g id="Group_39744" data-name="Group 39744" transform="translate(-170.064 -1102.359)">
    <g id="Group_39740" data-name="Group 39740" transform="translate(-401 18.664)">
      <path id="Layer" d="M-13.3,867.086l-14.538,8.24A13.172,13.172,0,0,0-34.1,886.021l-.135,16.974a10.753,10.753,0,0,0,5.138,8.913l15.859,9.325a10.654,10.654,0,0,0,10.182-.193l16.723-9.479a8.73,8.73,0,0,0,4.079-7.41l.156-19.67a9.6,9.6,0,0,0-4.671-8l-15.1-8.878C-5.375,865.546-10.153,865.3-13.3,867.086Z" transform="translate(605.301 217.804)" fill="url(#linear-gradient)"/>
    </g>
    <g id="Group_39743" data-name="Group 39743" transform="translate(181.29 1116.959)">
      <path id="Path_676" data-name="Path 676" d="M45.763,58.978v0c-.169.012-1.043.063-2.986.063-1.554,0-2.644-.043-3.029-.063v0c-5.976-.264-10.434-1.3-10.434-2.549s4.461-2.286,10.434-2.549v4.064c.389.028,1.511.094,3.057.094,1.857,0,2.785-.079,2.959-.094v-4.06c5.964.268,10.41,1.306,10.41,2.549s-4.45,2.282-10.41,2.549m0-5.52V49.826h8.321V44.283H31.43v5.543h8.321v3.635C32.988,53.773,27.9,55.11,27.9,56.715s5.087,2.943,11.846,3.258V71.626h6.016V59.973c6.751-.311,11.826-1.648,11.826-3.254s-5.075-2.943-11.826-3.254" transform="translate(-27.905 -44.283)" fill="#fff"/>
    </g>
  </g>
</svg>
